<!DOCTYPE svg PUBLIC "-//W3C//DTD SVG 1.1//EN" "http://www.w3.org/Graphics/SVG/1.1/DTD/svg11.dtd">
<!-- Uploaded to: SVG Repo, www.svgrepo.com, Transformed by: SVG Repo Mixer Tools -->
<svg width="64px" height="64px" viewBox="-8.16 -8.16 64.32 64.32" id="Layer_2" data-name="Layer 2" xmlns="http://www.w3.org/2000/svg" fill="#000000">
<g id="SVGRepo_bgCarrier" stroke-width="0" transform="translate(7.919999999999998,7.919999999999998), scale(0.67)">
<path transform="translate(-8.16, -8.16), scale(2.01)" d="M16,28.576757747147767C18.552498261972893,28.95683051038992,21.181500641115765,28.781616096409117,23.537557448452066,27.72866832783869C26.128520215796122,26.570738495319766,29.037716534451498,25.054171963226146,29.91856711340059,22.35639661743371C30.796454591273847,19.667696342056757,28.629827037967402,17.02483303121159,27.926998236759935,14.285156541037605C27.314667238744473,11.898246903035249,27.543880043875816,9.251036585651,26.05318552149588,7.2888651578533175C24.52225679450377,5.273734250078386,22.151761543689833,4.0179854867430045,19.687893635960435,3.4401877056286647C17.299755361127307,2.880149161409616,14.901726136261408,3.5700397327392164,12.50959716014554,4.112779589724855C9.960286173320904,4.691181797221087,7.320824063300106,5.078170124569334,5.278230837322161,6.709534134951543C3.0031195716572583,8.526604020045205,0.5357268618366394,10.851505687021401,0.4289977614580085,13.76122786235052C0.32238525292960657,16.667771430431237,2.953798672399945,18.849790105780794,4.748986191608026,21.138165842194212C6.172143373276775,22.95230410284228,7.85566238751956,24.40835294604837,9.77904512736642,25.679994730727422C11.72660237116458,26.96761945458519,13.690731675010333,28.232902471544946,16,28.576757747147767" fill="#7ed0ec" strokewidth="0"/>
</g>
<g id="SVGRepo_tracerCarrier" stroke-linecap="round" stroke-linejoin="round" stroke="#CCCCCC" stroke-width="2.112">
<defs>
<style>.cls-1{fill:none;stroke:#000000;stroke-linecap:round;stroke-linejoin:round;}</style>
</defs>
<path class="cls-1" d="M40.5,5.5H7.5a2,2,0,0,0-2,2v33a2,2,0,0,0,2,2h33a2,2,0,0,0,2-2V7.5A2,2,0,0,0,40.5,5.5Z"/>
<path class="cls-1" d="M15,37.4V10.5h9a9,9,0,0,1,0,18.07H15"/>
<line class="cls-1" x1="24" y1="28.57" x2="32.91" y2="37.5"/>
</g>
<g id="SVGRepo_iconCarrier">
<defs>
<style>.cls-1{fill:none;stroke:#000000;stroke-linecap:round;stroke-linejoin:round;}</style>
</defs>
<path class="cls-1" d="M40.5,5.5H7.5a2,2,0,0,0-2,2v33a2,2,0,0,0,2,2h33a2,2,0,0,0,2-2V7.5A2,2,0,0,0,40.5,5.5Z"/>
<path class="cls-1" d="M15,37.4V10.5h9a9,9,0,0,1,0,18.07H15"/>
<line class="cls-1" x1="24" y1="28.57" x2="32.91" y2="37.5"/>
</g>
</svg>